<svg width="126" height="113" viewBox="0 0 126 113" fill="none" xmlns="http://www.w3.org/2000/svg">
<path d="M13 63C9.5625 63 6.62083 61.775 4.175 59.325C1.725 56.8792 0.5 53.9375 0.5 50.5V13C0.5 9.5625 1.725 6.61875 4.175 4.16875C6.62083 1.72292 9.5625 0.5 13 0.5H113C116.438 0.5 119.381 1.72292 121.831 4.16875C124.277 6.61875 125.5 9.5625 125.5 13V50.5C125.5 53.9375 124.277 56.8792 121.831 59.325C119.381 61.775 116.438 63 113 63H100.5V38C100.5 34.5625 99.2771 31.6208 96.8313 29.175C94.3813 26.725 91.4375 25.5 88 25.5H38C34.5625 25.5 31.6208 26.725 29.175 29.175C26.725 31.6208 25.5 34.5625 25.5 38V63H13ZM31.75 75.5H44.25C44.25 84.1458 41.2021 91.5167 35.1063 97.6125C29.0146 103.704 21.6458 106.75 13 106.75V94.25C18.2083 94.25 22.6354 92.4271 26.2812 88.7812C29.9271 85.1354 31.75 80.7083 31.75 75.5ZM38 63V38H88V63H38ZM56.75 113V75.5H69.25V113H56.75ZM81.75 75.5H94.25C94.25 80.7083 96.0729 85.1354 99.7188 88.7812C103.365 92.4271 107.792 94.25 113 94.25V106.75C104.354 106.75 96.9833 103.704 90.8875 97.6125C84.7958 91.5167 81.75 84.1458 81.75 75.5Z" fill="black"/>
</svg>
