<svg width="18" height="28" viewBox="0 0 18 28" fill="none" xmlns="http://www.w3.org/2000/svg">
<path fill-rule="evenodd" clip-rule="evenodd" d="M9 0C4.02944 0 0 4.02944 0 9V19C0 23.9706 4.02944 28 9 28C13.9706 28 18 23.9706 18 19V9C18 4.02944 13.9706 0 9 0ZM8.63059 4.32486C7.97708 3.79388 7 4.25894 7 5.10097V12L4.20711 9.20711C3.81658 8.81658 3.18342 8.81658 2.79289 9.20711L2.70711 9.29289C2.31658 9.68342 2.31658 10.3166 2.70711 10.7071L6 14L2.70711 17.2929C2.31658 17.6834 2.31658 18.3166 2.70711 18.7071L2.79289 18.7929C3.18342 19.1834 3.81658 19.1834 4.20711 18.7929L7 16V22.099C7 22.9041 7.90303 23.3792 8.56653 22.923L13.9546 19.2187C14.4876 18.8523 14.5378 18.084 14.0571 17.6514L10 14L14.131 10.2821C14.5874 9.87132 14.5692 9.14998 14.0926 8.76273L8.63059 4.32486ZM10 8V11.5L12 9.5L10 8ZM10 20V16.5L12 18.5L10 20Z" fill="white"/>
</svg>
