<svg width="48" height="48" viewBox="0 0 48 48" fill="none" xmlns="http://www.w3.org/2000/svg">
<path fill-rule="evenodd" clip-rule="evenodd" d="M43 41H42C40.3431 41 39 39.6569 39 38H12C10.8282 38 9.82064 38.8143 8.83822 39.6083C8.43151 39.937 8.02912 40.2622 7.62119 40.5247C7.15369 40.8255 6.59723 41 6 41H5C3.34315 41 2 39.6569 2 38V24.4853C2 22.894 2.63214 21.3679 3.75736 20.2426L5 19H2.97301C1.88335 19 1 18.1167 1 17.027C1 16.4234 1.41078 15.8973 1.99632 15.7509L3.75747 15.3106C4.38861 15.1528 5 15.6302 5 16.2808V18H6L7.79419 11.4213C8.50611 8.81093 10.8771 7 13.5828 7H34.4172C37.1229 7 39.4939 8.81093 40.2058 11.4213L42 18H43V16.2808C43 15.6302 43.6114 15.1528 44.2425 15.3106L46.0037 15.7509C46.5892 15.8973 47 16.4234 47 17.027C47 18.1167 46.1167 19 45.027 19H43L44.2426 20.2426C45.3679 21.3679 46 22.894 46 24.4853V38C46 39.6569 44.6569 41 43 41ZM8.71724 12.2759L7.11565 17.6145C7.05123 17.8293 7.16909 18.0564 7.38179 18.1273C9.11593 18.7053 10.9319 19 12.7599 19H35.3381C37.166 19 38.982 18.7053 40.7162 18.1273C40.9289 18.0564 41.0467 17.8293 40.9823 17.6145L39.3807 12.2759C38.6194 9.73801 36.2834 8 33.6338 8H14.4642C11.8145 8 9.47861 9.73801 8.71724 12.2759ZM40.9964 20.3215C39.327 21.9598 37.9249 23.2238 35.3299 24.3004C35.0758 24.4059 34.9755 24.7174 35.1281 24.9463C35.5614 25.5962 36.3135 25.9594 37.0919 25.8945L39.8407 25.6654C41.1254 25.5584 42.3305 24.9994 43.242 24.0879C43.87 23.4599 43.952 22.47 43.4358 21.7473L42.5107 20.4521C42.1535 19.952 41.435 19.8911 40.9964 20.3215ZM6.83385 20.3216C8.50324 21.9599 9.90535 23.224 12.5003 24.3005C12.7545 24.406 12.8548 24.7175 12.7022 24.9464C12.2689 25.5963 11.5168 25.9595 10.7384 25.8946L7.98954 25.6656C6.70488 25.5585 5.49975 24.9996 4.58821 24.088C3.96022 23.46 3.87829 22.4701 4.39449 21.7474L5.31959 20.4523C5.6768 19.9522 6.39523 19.8912 6.83385 20.3216ZM9.9999 32C7.39942 31.525 6.05848 31.1194 3.9999 30L3.81054 30.7575C3.65275 31.3886 4.13011 32 4.78068 32H9.9999ZM37.7802 32C40.3807 31.525 41.7216 31.1194 43.7802 30L43.9696 30.7575C44.1273 31.3886 43.65 32 42.9994 32H37.7802ZM12.707 34.2929C12.8945 34.1054 13.1489 34 13.4141 34H34.5856C34.8509 34 35.1052 34.1054 35.2928 34.2929L36.1463 35.1464C36.4613 35.4614 36.2382 36 35.7928 36H12.207C11.7615 36 11.5384 35.4614 11.8534 35.1464L12.707 34.2929Z" fill="white"/>
</svg>
