<svg width="114" height="120" viewBox="0 0 114 120" fill="none" xmlns="http://www.w3.org/2000/svg">
<path d="M13.25 0.5H25.75V19.25H13.25V0.5ZM38.25 0.5H50.75V19.25H38.25V0.5ZM63.25 0.5H75.75V19.25H63.25V0.5ZM100.75 44.25H88.25V38C88.25 36.3424 87.5915 34.7527 86.4194 33.5806C85.2473 32.4085 83.6576 31.75 82 31.75H7C5.3424 31.75 3.75268 32.4085 2.58058 33.5806C1.40848 34.7527 0.75 36.3424 0.75 38V100.5C0.75 105.473 2.72544 110.242 6.24175 113.758C9.75806 117.275 14.5272 119.25 19.5 119.25H69.5C74.4728 119.25 79.2419 117.275 82.7583 113.758C86.2746 110.242 88.25 105.473 88.25 100.5H100.75C107.644 100.5 113.25 94.8938 113.25 88V56.75C113.25 49.8562 107.644 44.25 100.75 44.25ZM88.25 88V56.75H100.75L100.763 88H88.25Z" fill="black"/>
</svg>
