<svg width="52" height="50" viewBox="0 0 52 50" fill="none" xmlns="http://www.w3.org/2000/svg">
<g filter="url(#filter0_d_443774_6010)">
<path fill-rule="evenodd" clip-rule="evenodd" d="M11.0395 14.277L11.0395 14.277L8.64697 15.7325L15.5237 29.8044H16.4144V28.3848C16.4243 27.7036 16.6103 27.0129 16.8109 26.468C16.8885 26.2584 16.973 26.0501 17.0556 25.8461L17.0556 25.846C17.1522 25.6077 17.2464 25.3753 17.3244 25.1538H15.5972L18.4346 19.3475L21.2721 25.1538H19.4125C19.3246 25.6624 19.1286 26.1385 18.9332 26.6135C18.8531 26.808 18.7731 27.0023 18.7006 27.1986C18.5268 27.6672 18.4247 27.9943 18.4346 28.3835L18.4346 29.8044H24.4945V28.406C24.5044 27.7248 24.6904 27.0341 24.891 26.4892C24.9686 26.2796 25.053 26.0713 25.1357 25.8673C25.2323 25.6289 25.3264 25.3965 25.4045 25.175H23.6772L26.5147 19.3687L29.3522 25.175H27.4926C27.4047 25.6836 27.2087 26.1597 27.0132 26.6346C26.9332 26.8292 26.8532 27.0235 26.7807 27.2198C26.6069 27.6884 26.5048 28.0155 26.5147 28.4047L26.5147 29.8044H32.0701V28.3848C32.0801 27.7036 32.2661 27.0129 32.4667 26.468C32.5443 26.2584 32.6287 26.0501 32.7114 25.8461C32.8079 25.6078 32.9021 25.3753 32.9802 25.1538H31.2529L34.0904 19.3475L36.9278 25.1538H35.0683C34.9804 25.6624 34.7844 26.1385 34.5889 26.6135C34.5089 26.808 34.4289 27.0023 34.3564 27.1986C34.1826 27.6672 34.0804 27.9943 34.0904 28.3835L34.0904 29.8044H36.9839L43.3962 15.7457L40.982 14.277L41.4982 13.3886L42.0145 12.5003L45.2143 14.4469L45.9999 14.9249L45.6134 15.7723L38.5425 31.275L38.2705 31.8715H37.6272H36.1786C36.4237 32.6037 36.6166 33.4966 36.6166 34.4555C36.6154 35.5405 36.4696 36.9891 36.0647 38.3194C35.6486 39.6675 34.9245 41.0507 33.6872 42.0001L32.4751 40.3465C33.2581 39.7457 33.7967 38.8035 34.1382 37.697C34.4908 36.5728 34.5976 35.4376 34.5964 34.4555C34.5964 33.4132 34.2729 32.4552 34.0024 31.8715H28.098C28.3431 32.6037 28.536 33.4966 28.536 34.4555C28.5348 35.5405 28.3891 36.9891 27.9841 38.3194C27.568 39.6675 26.844 41.0507 25.6067 42.0001L24.3945 40.3465C25.1775 39.7457 25.7161 38.8035 26.0576 37.697C26.4102 36.5728 26.517 35.4376 26.5158 34.4555C26.5158 33.4132 26.1923 32.4552 25.9218 31.8715H19.5116C19.7567 32.6037 19.9496 33.4966 19.9496 34.4555C19.9484 35.5405 19.8027 36.9891 19.3977 38.3194C18.9816 39.6675 18.2575 41.0507 17.0203 42.0001L15.8081 40.3465C16.5911 39.7457 17.1297 38.8035 17.4712 37.697C17.8238 36.5728 17.9306 35.4376 17.9294 34.4555C17.9294 33.4132 17.6059 32.4552 17.3354 31.8715H14.8994H14.2751L13.9959 31.3001L6.42 15.7975L6 14.938L6.80723 14.4469L9.83517 12.6049L10.007 12.5003C19.8703 6.4999 32.1513 6.4999 42.0145 12.5003L41.4982 13.3886L40.982 14.277C31.7551 8.6637 20.2664 8.6637 11.0395 14.277Z" fill="#007BE4"/>
</g>
<defs>
<filter id="filter0_d_443774_6010" x="-4" y="-6" width="62" height="62" filterUnits="userSpaceOnUse" color-interpolation-filters="sRGB">
<feFlood flood-opacity="0" result="BackgroundImageFix"/>
<feColorMatrix in="SourceAlpha" type="matrix" values="0 0 0 0 0 0 0 0 0 0 0 0 0 0 0 0 0 0 127 0" result="hardAlpha"/>
<feOffset/>
<feGaussianBlur stdDeviation="3"/>
<feColorMatrix type="matrix" values="0 0 0 0 0.392157 0 0 0 0 0.823529 0 0 0 0 1 0 0 0 1 0"/>
<feBlend mode="normal" in2="BackgroundImageFix" result="effect1_dropShadow_443774_6010"/>
<feBlend mode="normal" in="SourceGraphic" in2="effect1_dropShadow_443774_6010" result="shape"/>
</filter>
</defs>
</svg>
