<svg width="150" height="150" viewBox="0 0 150 150" fill="none" xmlns="http://www.w3.org/2000/svg">
<path d="M112.5 9.375C114.986 9.375 117.371 10.3627 119.129 12.1209C120.887 13.879 121.875 16.2636 121.875 18.75V140.625H135.938C137.181 140.625 138.373 141.119 139.252 141.998C140.131 142.877 140.625 144.069 140.625 145.312C140.625 146.556 140.131 147.748 139.252 148.627C138.373 149.506 137.181 150 135.938 150H14.0625C12.8193 150 11.627 149.506 10.7479 148.627C9.86886 147.748 9.375 146.556 9.375 145.312C9.375 144.069 9.86886 142.877 10.7479 141.998C11.627 141.119 12.8193 140.625 14.0625 140.625H28.125V18.75C28.125 16.2636 29.1127 13.879 30.8709 12.1209C32.629 10.3627 35.0136 9.375 37.5 9.375H112.5ZM93.75 93.75C96.2364 93.75 98.621 92.7623 100.379 91.0041C102.137 89.246 103.125 86.8614 103.125 84.375C103.125 81.8886 102.137 79.504 100.379 77.7459C98.621 75.9877 96.2364 75 93.75 75C91.2636 75 88.879 75.9877 87.1209 77.7459C85.3627 79.504 84.375 81.8886 84.375 84.375C84.375 86.8614 85.3627 89.246 87.1209 91.0041C88.879 92.7623 91.2636 93.75 93.75 93.75V93.75Z" fill="black"/>
</svg>
