<svg width="150" height="150" viewBox="0 0 150 150" fill="none" xmlns="http://www.w3.org/2000/svg">
<path fill-rule="evenodd" clip-rule="evenodd" d="M43.9624 40.625C43.9624 32.337 47.2548 24.3884 53.1153 18.5279C58.9758 12.6674 66.9244 9.375 75.2124 9.375C83.5004 9.375 91.449 12.6674 97.3095 18.5279C103.17 24.3884 106.462 32.337 106.462 40.625V65.625C106.462 73.913 103.17 81.8616 97.3095 87.7221C91.449 93.5826 83.5004 96.875 75.2124 96.875C66.9244 96.875 58.9758 93.5826 53.1153 87.7221C47.2548 81.8616 43.9624 73.913 43.9624 65.625V40.625V40.625ZM93.9624 40.625V65.625C93.9624 70.5978 91.987 75.3669 88.4707 78.8833C84.9543 82.3996 80.1852 84.375 75.2124 84.375C70.2396 84.375 65.4705 82.3996 61.9542 78.8833C58.4378 75.3669 56.4624 70.5978 56.4624 65.625V40.625C56.4624 35.6522 58.4378 30.8831 61.9542 27.3667C65.4705 23.8504 70.2396 21.875 75.2124 21.875C80.1852 21.875 84.9543 23.8504 88.4707 27.3667C91.987 30.8831 93.9624 35.6522 93.9624 40.625V40.625Z" fill="black"/>
<path d="M75.2124 103.125C73.5548 103.125 71.9651 103.783 70.793 104.955C69.6209 106.127 68.9624 107.717 68.9624 109.375V134.375C68.9624 136.032 69.6209 137.622 70.793 138.794C71.9651 139.966 73.5548 140.625 75.2124 140.625C76.87 140.625 78.4597 139.966 79.6318 138.794C80.8039 137.622 81.4624 136.032 81.4624 134.375V109.375C81.4624 107.717 80.8039 106.127 79.6318 104.955C78.4597 103.783 76.87 103.125 75.2124 103.125ZM48.3999 102.75C48.6806 101.978 49.1105 101.27 49.6651 100.664C50.2197 100.059 50.8881 99.5686 51.6321 99.2216C52.3761 98.8745 53.1812 98.6774 54.0014 98.6415C54.8216 98.6056 55.6409 98.7316 56.4124 99.0123C57.1839 99.293 57.8926 99.7229 58.498 100.277C59.1033 100.832 59.5935 101.5 59.9406 102.244C60.2877 102.988 60.4848 103.794 60.5207 104.614C60.5566 105.434 60.4306 106.253 60.1499 107.025L51.5999 130.519C51.3192 131.29 50.8893 131.999 50.3347 132.604C49.7801 133.209 49.1117 133.7 48.3677 134.047C47.6237 134.394 46.8186 134.591 45.9984 134.627C45.1782 134.663 44.3589 134.537 43.5874 134.256C42.8159 133.975 42.1072 133.545 41.5018 132.991C40.8965 132.436 40.4063 131.768 40.0592 131.024C39.7122 130.28 39.515 129.475 39.4791 128.654C39.4432 127.834 39.5692 127.015 39.8499 126.244L48.3999 102.744V102.75ZM93.5874 99.0123C92.8158 99.2928 92.1069 99.7226 91.5014 100.277C90.8959 100.832 90.4056 101.5 90.0586 102.244C89.7115 102.988 89.5144 103.793 89.4786 104.614C89.4428 105.434 89.569 106.253 89.8499 107.025L98.4062 130.519C98.6752 131.305 99.0983 132.029 99.6508 132.65C100.203 133.271 100.874 133.775 101.624 134.134C102.373 134.492 103.187 134.697 104.017 134.738C104.847 134.778 105.677 134.652 106.457 134.368C107.238 134.084 107.955 133.647 108.564 133.082C109.174 132.518 109.666 131.837 110.009 131.081C110.353 130.324 110.543 129.507 110.567 128.676C110.591 127.846 110.449 127.019 110.15 126.244L101.6 102.744C101.032 101.186 99.869 99.9182 98.3664 99.2185C96.8638 98.5187 95.1447 98.4446 93.5874 99.0123V99.0123Z" fill="black"/>
</svg>
