<svg width="48" height="48" viewBox="0 0 48 48" fill="none" xmlns="http://www.w3.org/2000/svg">
<g filter="url(#filter0_d_443774_6001)">
<g filter="url(#filter1_d_443774_6001)">
<path fill-rule="evenodd" clip-rule="evenodd" d="M8 10H40V28.0706H32.309L32.309 25.7793C32.2992 25.4016 32.4003 25.0841 32.5724 24.6292C32.6441 24.4387 32.7233 24.25 32.8026 24.0612C32.9961 23.6002 33.1901 23.1381 33.2771 22.6443H35.118L32.309 17.0083L29.5 22.6443H31.21C31.1326 22.8594 31.0394 23.085 30.9438 23.3164C30.862 23.5144 30.7784 23.7166 30.7016 23.92C30.503 24.4489 30.3189 25.1194 30.309 25.7806V28.0706H24.309L24.309 25.7793C24.2992 25.4016 24.4003 25.0841 24.5724 24.6292C24.6441 24.4387 24.7233 24.25 24.8026 24.0612C24.9961 23.6002 25.1901 23.1381 25.2771 22.6443H27.118L24.309 17.0083L21.5 22.6443H23.21C23.1326 22.8594 23.0394 23.085 22.9438 23.3164C22.862 23.5144 22.7784 23.7166 22.7016 23.92C22.503 24.4489 22.3189 25.1194 22.309 25.7806V28.0706H16.31L16.31 25.7793C16.3002 25.4016 16.4012 25.0841 16.5734 24.6292C16.6451 24.4387 16.7243 24.25 16.8035 24.0612C16.9971 23.6002 17.191 23.1381 17.2781 22.6443H19.119L16.31 17.0083L13.501 22.6443H15.2109C15.1336 22.8594 15.0404 23.085 14.9448 23.3164L14.9448 23.3164L14.9447 23.3165C14.8629 23.5145 14.7794 23.7166 14.7026 23.92C14.504 24.4489 14.3198 25.1194 14.31 25.7806V28.0706H8V10ZM6 10C6 8.89543 6.89543 8 8 8H40C41.1046 8 42 8.89543 42 10V28.0706C42 29.1751 41.1046 30.0706 40 30.0706H34.8423C35.1009 30.799 35.31 31.7026 35.31 32.6766C35.3087 33.7297 35.1645 35.1358 34.7635 36.4272C34.3516 37.7357 33.6348 39.0784 32.41 40L31.21 38.3948C31.9851 37.8116 32.5183 36.8971 32.8564 35.823C33.2055 34.7317 33.3112 33.6298 33.31 32.6766C33.31 31.6043 32.9503 30.6239 32.6745 30.0706H26.8423C27.1009 30.799 27.31 31.7026 27.31 32.6766C27.3087 33.7297 27.1645 35.1358 26.7635 36.4272C26.3516 37.7357 25.6348 39.0784 24.41 40L23.21 38.3948C23.9851 37.8116 24.5183 36.8971 24.8564 35.823C25.2055 34.7317 25.3112 33.6298 25.31 32.6766C25.31 31.6043 24.9503 30.6239 24.6745 30.0706H18.3423C18.6009 30.799 18.81 31.7026 18.81 32.6766C18.8087 33.7297 18.6645 35.1358 18.2635 36.4272C17.8516 37.7357 17.1349 39.0784 15.91 40L14.71 38.3948C15.4851 37.8116 16.0183 36.8971 16.3564 35.823C16.7054 34.7317 16.8112 33.6298 16.81 32.6766C16.81 31.6043 16.4503 30.6239 16.1745 30.0706H8C6.89543 30.0706 6 29.1751 6 28.0706V10Z" fill="#D0021B"/>
</g>
</g>
<defs>
<filter id="filter0_d_443774_6001" x="-6" y="-6" width="60" height="60" filterUnits="userSpaceOnUse" color-interpolation-filters="sRGB">
<feFlood flood-opacity="0" result="BackgroundImageFix"/>
<feColorMatrix in="SourceAlpha" type="matrix" values="0 0 0 0 0 0 0 0 0 0 0 0 0 0 0 0 0 0 127 0" result="hardAlpha"/>
<feOffset/>
<feGaussianBlur stdDeviation="3"/>
<feColorMatrix type="matrix" values="0 0 0 0 0.815686 0 0 0 0 0.00784314 0 0 0 0 0.105882 0 0 0 0.5 0"/>
<feBlend mode="normal" in2="BackgroundImageFix" result="effect1_dropShadow_443774_6001"/>
<feBlend mode="normal" in="SourceGraphic" in2="effect1_dropShadow_443774_6001" result="shape"/>
</filter>
<filter id="filter1_d_443774_6001" x="0" y="2" width="48" height="44" filterUnits="userSpaceOnUse" color-interpolation-filters="sRGB">
<feFlood flood-opacity="0" result="BackgroundImageFix"/>
<feColorMatrix in="SourceAlpha" type="matrix" values="0 0 0 0 0 0 0 0 0 0 0 0 0 0 0 0 0 0 127 0" result="hardAlpha"/>
<feOffset/>
<feGaussianBlur stdDeviation="3"/>
<feColorMatrix type="matrix" values="0 0 0 0 0.815686 0 0 0 0 0.00784314 0 0 0 0 0.105882 0 0 0 1 0"/>
<feBlend mode="normal" in2="BackgroundImageFix" result="effect1_dropShadow_443774_6001"/>
<feBlend mode="normal" in="SourceGraphic" in2="effect1_dropShadow_443774_6001" result="shape"/>
</filter>
</defs>
</svg>
