<svg width="150" height="150" viewBox="0 0 150 150" fill="none" xmlns="http://www.w3.org/2000/svg">
<path d="M125 125C125 126.658 124.342 128.247 123.169 129.419C121.997 130.592 120.408 131.25 118.75 131.25H31.25C29.5924 131.25 28.0027 130.592 26.8306 129.419C25.6585 128.247 25 126.658 25 125V68.75H6.25L70.7937 10.075C71.9444 9.02797 73.4443 8.44775 75 8.44775C76.5557 8.44775 78.0556 9.02797 79.2063 10.075L143.75 68.75H125V125ZM53.7 86.3L47.5062 89.875L53.7562 100.706L59.9625 97.125C62.4522 99.479 65.4601 101.215 68.7437 102.194V109.35H81.2563V102.187C84.5393 101.211 87.5471 99.4767 90.0375 97.125L96.2375 100.7L102.5 89.875L96.3063 86.3C97.0971 82.9713 97.0971 79.5037 96.3063 76.175L102.5 72.5937L96.25 61.7625L90.0437 65.3437C87.5498 62.9903 84.5375 61.2562 81.25 60.2812V53.125H68.7375V60.275C65.4538 61.2535 62.446 62.9898 59.9563 65.3437L53.7562 61.7625L47.5 72.6L53.6937 76.175C52.9029 79.5037 52.9029 82.9713 53.6937 86.3H53.7ZM75 90.6125C73.7684 90.6133 72.5488 90.3715 71.4107 89.901C70.2726 89.4305 69.2383 88.7404 68.3668 87.8701C67.4954 86.9999 66.8039 85.9665 66.3319 84.829C65.8598 83.6915 65.6164 82.4722 65.6156 81.2406C65.6148 80.0091 65.8566 78.7894 66.3271 77.6513C66.7976 76.5132 67.4877 75.4789 68.358 74.6074C69.2283 73.736 70.2616 73.0446 71.3991 72.5725C72.5366 72.1004 73.7559 71.8571 74.9875 71.8562C77.4739 71.8546 79.8591 72.8407 81.6185 74.5977C83.3778 76.3547 84.3671 78.7386 84.3687 81.225C84.3704 83.7114 83.3843 86.0966 81.6273 87.8559C79.8703 89.6153 77.4864 90.6046 75 90.6062V90.6125Z" fill="black"/>
</svg>
