<svg width="50" height="50" viewBox="0 0 50 50" fill="white" xmlns="http://www.w3.org/2000/svg">
<path d="M7.67703 39.1313L24.0937 9.94799C24.1845 9.78768 24.3163 9.65434 24.4755 9.56157C24.6347 9.4688 24.8157 9.41992 24.9999 9.41992C25.1842 9.41992 25.3652 9.4688 25.5244 9.56157C25.6836 9.65434 25.8153 9.78768 25.9062 9.94799L42.3229 39.1313C42.4273 39.3184 42.4715 39.5332 42.4494 39.7463C42.4273 39.9594 42.3401 40.1605 42.1995 40.3223C42.059 40.484 41.872 40.5984 41.664 40.65C41.4561 40.7016 41.2373 40.6878 41.0374 40.6105L25.377 34.523C25.1345 34.4288 24.8654 34.4288 24.6229 34.523L8.96244 40.6126C8.76236 40.6903 8.54315 40.7044 8.33478 40.6528C8.12642 40.6012 7.93908 40.4865 7.79839 40.3244C7.6577 40.1622 7.57053 39.9606 7.54881 39.7471C7.52708 39.5335 7.57186 39.3185 7.67703 39.1313V39.1313Z" stroke="#F8F8F8" stroke-width="3.125" stroke-linecap="round" stroke-linejoin="round"/>
</svg>
