<svg width="150" height="150" viewBox="0 0 150 150" fill="none" xmlns="http://www.w3.org/2000/svg">
<path d="M75 9.375C57.6601 9.5842 41.0894 16.5654 28.8274 28.8274C16.5654 41.0894 9.5842 57.6601 9.375 75C9.5842 92.3399 16.5654 108.911 28.8274 121.173C41.0894 133.435 57.6601 140.416 75 140.625C92.3399 140.416 108.911 133.435 121.173 121.173C133.435 108.911 140.416 92.3399 140.625 75C140.416 57.6601 133.435 41.0894 121.173 28.8274C108.911 16.5654 92.3399 9.5842 75 9.375V9.375ZM112.5 79.6875H79.6875V112.5H70.3125V79.6875H37.5V70.3125H70.3125V37.5H79.6875V70.3125H112.5V79.6875Z" fill="black"/>
</svg>
